<?xml version="1.0" encoding="UTF-8" standalone="no"?>
<!-- Created with Inkscape (http://www.inkscape.org/) -->

<svg
   width="1920"
   height="1080"
   viewBox="0 0 1920 1080"
   version="1.1"
   id="svg1"
   inkscape:export-filename="/home/bizad/Desktop/pfxLogoBlackWhite.png"
   inkscape:export-xdpi="96"
   inkscape:export-ydpi="96"
   sodipodi:docname="pfxLogoTeal.svg"
   inkscape:version="1.4.3 (0d15f75042, 2025-12-25)"
   xml:space="preserve"
   xmlns:inkscape="http://www.inkscape.org/namespaces/inkscape"
   xmlns:sodipodi="http://sodipodi.sourceforge.net/DTD/sodipodi-0.dtd"
   xmlns="http://www.w3.org/2000/svg"
   xmlns:svg="http://www.w3.org/2000/svg"><sodipodi:namedview
     id="namedview1"
     pagecolor="#ffffff"
     bordercolor="#000000"
     borderopacity="0.25"
     inkscape:showpageshadow="2"
     inkscape:pageopacity="0.0"
     inkscape:pagecheckerboard="false"
     inkscape:deskcolor="#d1d1d1"
     inkscape:document-units="px"
     inkscape:zoom="0.35355339"
     inkscape:cx="885.29769"
     inkscape:cy="234.75945"
     inkscape:window-width="1920"
     inkscape:window-height="939"
     inkscape:window-x="0"
     inkscape:window-y="32"
     inkscape:window-maximized="1"
     inkscape:current-layer="g14"
     inkscape:export-bgcolor="#000000ff" /><defs
     id="defs1"><rect
       x="99.782609"
       y="171.68478"
       width="1705.1087"
       height="598.69565"
       id="rect1" /></defs><g
     inkscape:label="Layer 1"
     inkscape:groupmode="layer"
     id="layer1"><g
       id="g15"
       inkscape:label="WORDMARK"
       style="display:inline;fill:#14b8a6;fill-opacity:1"><path
         d="m 1679.0431,331.81209 h 29.803 v 8.27186 h -9.61 l 0.1217,34.54718 h -10.9481 l 0.2433,-34.54718 h -9.6099 z m 88.3142,0 v 42.81904 h -9.9749 l -0.2433,-28.95151 -12.0428,28.95151 h -7.4204 l -11.9212,-29.55973 v 29.55973 h -9.8532 v -42.81904 h 14.1108 l 11.6779,30.04632 12.2862,-30.04632 z"
         id="text1"
         style="font-weight:500;font-size:121.645px;line-height:0;font-family:Poppins;-inkscape-font-specification:'Poppins Medium';letter-spacing:-3.12021px;word-spacing:-6.58711px;fill:#14b8a6;stroke-width:2.73703;stroke-linecap:round"
         aria-label="™"
         inkscape:label="TM" /><path
         style="font-weight:500;font-size:400px;font-family:Poppins;-inkscape-font-specification:'Poppins Medium';letter-spacing:-3.42px;word-spacing:-7.22px;white-space:pre;fill:#14b8a6;fill-opacity:1"
         d="m 1584.2252,471.80178 86.4,138.8 h -51.2 l -62.8,-100.8 -58.8,100.8 h -50.8 l 86.4,-138.8 -86.8,-139.2 h 51.2 l 63.2,101.6 59.2,-101.6 h 50.8 z"
         id="path19"
         inkscape:label="X" /><path
         id="path18"
         style="font-weight:500;font-size:400px;font-family:Poppins;-inkscape-font-specification:'Poppins Medium';letter-spacing:-3.42px;word-spacing:-7.22px;white-space:pre;fill:#14b8a6;fill-opacity:1"
         d="m 1272.4451,332.20172 -99.5996,278.40038 h 47.5996 l 20,-56.80078 h 116.4004 l 20,56.80078 h 48 L 1325.244,332.20171 Z m 26.4004,55.19921 45.1992,129.20117 h -90.8007 z"
         inkscape:label="A" /><path
         style="font-weight:500;font-size:400px;font-family:Poppins;-inkscape-font-specification:'Poppins Medium';letter-spacing:-3.42px;word-spacing:-7.22px;white-space:pre;fill:#14b8a6;fill-opacity:1"
         d="m 1186.2651,332.60178 v 37.2 h -118 v 82 h 92 v 37.19999 h -92 v 121.60001 h -45.6 v -278 z"
         id="path16"
         inkscape:label="F" /><path
         style="font-weight:500;font-size:400px;font-family:Poppins;-inkscape-font-specification:'Poppins Medium';letter-spacing:-3.42px;word-spacing:-7.22px;white-space:pre;fill:#14b8a6;fill-opacity:1"
         d="m 970.08515,332.60178 v 278 h -45.6 v -278 z"
         id="path15"
         inkscape:label="I" /><path
         style="font-weight:500;font-size:400px;font-family:Poppins;-inkscape-font-specification:'Poppins Medium';letter-spacing:-3.42px;word-spacing:-7.22px;white-space:pre;fill:#14b8a6;fill-opacity:1"
         d="m 777.90503,573.80178 h 94 v 36.8 h -139.6 v -278 h 45.6 z"
         id="path14"
         inkscape:label="L" /><path
         id="path13"
         style="font-weight:500;font-size:400px;font-family:Poppins;-inkscape-font-specification:'Poppins Medium';letter-spacing:-3.42px;word-spacing:-7.22px;white-space:pre;display:none;fill:#14b8a6;fill-opacity:1"
         d="m 548.92557,329.00249 c -25.86666,2e-5 -49.73489,6.13178 -71.60156,18.39844 -21.6,12 -38.79961,28.80039 -51.59961,50.4004 -12.53333,21.6 -18.79883,46.00117 -18.79883,73.20116 0,27.2 6.2655,51.73296 18.79883,73.59961 12.8,21.60001 29.99961,38.53218 51.59961,50.79883 21.86667,12 45.7349,18 71.60156,18 26.13334,0 49.99961,-6 71.59961,-18 21.86667,-12.26666 39.06628,-29.19883 51.59961,-50.79883 12.53334,-21.86666 18.80078,-46.39961 18.80078,-73.59961 0,-27.19999 -6.26744,-51.60117 -18.80078,-73.20117 -12.53333,-21.6 -29.73294,-38.40039 -51.59961,-50.40039 -21.6,-12.26666 -45.46627,-18.39844 -71.59961,-18.39844 z m 0,40 c 18.4,10e-6 34.79922,4.13178 49.19922,12.39844 14.4,8.26667 25.59961,20.13491 33.59961,35.60156 8.26667,15.46668 12.40039,33.46668 12.40039,54 0,20.53335 -4.13372,38.66512 -12.40039,54.39844 -8,15.46668 -19.19961,27.46668 -33.59961,36 -14.4,8.26667 -30.79922,12.4004 -49.19922,12.4004 -18.4,0 -34.80117,-4.13372 -49.20117,-12.4004 -14.4,-8.53332 -25.73333,-20.53332 -34,-36 -8,-15.73333 -12,-33.86509 -12,-54.39844 0,-20.53332 4,-38.53332 12,-54 8.26667,-15.46665 19.6,-27.33488 34,-35.60156 14.4,-8.26666 30.80117,-12.39844 49.20117,-12.39844 z"
         inkscape:label="O"
         sodipodi:insensitive="true" /><path
         id="path11"
         style="font-weight:500;font-size:400px;font-family:Poppins;-inkscape-font-specification:'Poppins Medium';letter-spacing:-3.42px;word-spacing:-7.22px;white-space:pre;fill:#14b8a6;fill-opacity:1"
         d="m 181.54471,332.6021 v 278 h 45.59961 V 497.80133 h 50.40039 c 22.93334,0 41.73373,-3.86627 56.40039,-11.59961 14.66667,-8 25.33334,-18.26744 32,-30.80078 6.66667,-12.53333 10,-25.86666 10,-40 0,-15.46666 -3.73255,-29.46666 -11.19921,-42 -7.2,-12.53333 -18.26784,-22.39961 -33.20118,-29.59961 -14.66666,-7.46666 -32.66666,-11.19922 -54,-11.19922 z m 45.59961,37.19922 h 50.40039 c 34.4,0 51.59961,15.19961 51.59961,45.59961 0,14.4 -4.26549,25.60156 -12.79883,33.60156 -8.53333,7.73334 -21.46744,11.59961 -38.80078,11.59961 h -50.40039 z"
         inkscape:label="P" /></g><g
       id="g14"
       inkscape:label="glass/eye"
       style="display:inline;fill:#14b8a6;fill-opacity:1"><g
         id="g16"
         inkscape:label="EYE"
         style="display:none;fill:#14b8a6;fill-opacity:1"
         transform="matrix(1.3108374,0,0,1.3108374,-165.73456,-145.14864)"
         sodipodi:insensitive="true"><circle
           style="fill:#14b8a6;fill-opacity:1;stroke-width:10.6828"
           id="path1"
           cx="540.56055"
           cy="469.57568"
           r="127.00714"
           transform="matrix(0.76287112,0,0,0.76287112,128.97109,111.62969)"
           inkscape:label="BALL" /><circle
           style="fill:#14b8a6;fill-opacity:1;stroke:none;stroke-width:8.98373;stroke-dasharray:none"
           id="path4"
           cx="543.88611"
           cy="470.7554"
           r="52.730614"
           inkscape:label="IRIS" /><circle
           style="display:inline;fill:#14b8a6;fill-opacity:1;stroke:none;stroke-width:0;stroke-dasharray:none"
           id="path4-2"
           cx="543.88611"
           cy="470.7554"
           r="34.830803"
           inkscape:label="PUPIL" /></g><g
         id="g17"
         inkscape:label="GLASS"
         style="display:inline;fill:#14b8a6;fill-opacity:1"><path
           style="baseline-shift:baseline;display:inline;overflow:visible;vector-effect:none;fill:#14b8a6;stroke:none;enable-background:accumulate;stop-color:#000000;fill-opacity:1"
           d="m 545.88612,332.77787 c -75.9783,0 -137.97852,62.00022 -137.97852,137.97852 0,75.97829 62.00022,137.97656 137.97852,137.97656 75.97829,0 137.97851,-61.99827 137.97851,-137.97656 0,-75.9783 -62.00022,-137.97852 -137.97851,-137.97852 z m 0,37.98438 c 55.44951,0 99.99414,44.54462 99.99414,99.99414 0,55.44951 -44.54463,99.99219 -99.99414,99.99219 -55.44952,0 -99.99219,-44.54268 -99.99219,-99.99219 0,-55.44952 44.54267,-99.99414 99.99219,-99.99414 z"
           id="path5"
           inkscape:label="RIM" /><path
           id="path5-9"
           style="baseline-shift:baseline;display:inline;overflow:visible;vector-effect:none;fill:#14b8a6;fill-opacity:1;stroke:none;stroke-width:0.564911;enable-background:accumulate;stop-color:#000000"
           inkscape:label="REFLECTION"
           d="m 467.9968,470.34666 c -0.0368,0.97894 -0.0562,1.96272 -0.0562,2.95034 0,42.92092 35.02458,77.94438 77.94552,77.94438 42.92092,0 77.94551,-35.02346 77.94551,-77.94438 0,-0.98762 -0.0184,-1.9714 -0.0552,-2.95034 h -21.47652 c 0.0495,0.97678 0.0739,1.96065 0.0739,2.95034 0,31.32401 -25.16374,56.48662 -56.48775,56.48662 -31.324,0 -56.48663,-25.16261 -56.48663,-56.48662 0,-0.98969 0.0254,-1.97356 0.075,-2.95034 z" /><path
           id="rect3"
           style="display:inline;fill:#14b8a6;fill-opacity:1;stroke:none;stroke-width:4.5;stroke-dasharray:none"
           d="m 769.73949,739.45566 -1.17849,1.06247 c -7.26246,6.54743 -35.11293,15.23883 -40.85701,7.32569 L 610.02539,585.72778 c -5.74408,-7.91314 -5.75988,-18.56818 1.50258,-25.11561 l 1.17849,-1.06247 c 7.26247,-6.54744 17.76712,-5.40098 24.7157,1.47866 l 142.99111,141.57255 c 6.94858,6.87966 -3.41131,30.30731 -10.67378,36.85475 z"
           sodipodi:nodetypes="sssssssss"
           inkscape:label="HANDLE" /></g></g></g></svg>
